<svg width="70" height="75" viewBox="0 0 70 75" fill="none" xmlns="http://www.w3.org/2000/svg">
<path d="M4.96513 0H47.1516L69.5123 21.0282V70.3125C69.5123 72.9023 67.288 75 64.5471 75H4.96513C2.22428 75 0 72.9023 0 70.3125V4.68745C0 2.0977 2.22453 0 4.96513 0Z" fill="#DA1414"/>
<path d="M4.96513 0.5H46.9534L69.0123 21.2443V70.3125C69.0123 72.5993 67.0395 74.5 64.5471 74.5H4.96513C2.47276 74.5 0.5 72.5993 0.5 70.3125V4.68745C0.5 2.40073 2.473 0.5 4.96513 0.5Z" stroke="white" stroke-opacity="0.3"/>
<path d="M69.4402 21.0937H52.1341C49.3932 21.0937 47.1689 18.9939 47.1689 16.4063V0.046875L69.4402 21.0937Z" fill="#F48989"/>
<path d="M50.8882 35.5385C51.7199 35.5385 52.1271 34.8541 52.1271 34.1909C52.1271 33.5041 51.7025 32.8408 50.8882 32.8408H46.1514C45.2254 32.8408 44.7091 33.565 44.7091 34.3643V45.354C44.7091 46.3338 45.2999 46.8775 46.0993 46.8775C46.8938 46.8775 47.4872 46.3338 47.4872 45.354V42.3377H50.3521C51.2409 42.3377 51.6853 41.6509 51.6853 40.969C51.6853 40.3011 51.2409 39.6376 50.3521 39.6376H47.4872V35.5385H50.8882ZM34.878 32.8408H31.4122C30.4713 32.8408 29.8034 33.4502 29.8034 34.3548V45.3635C29.8034 46.4861 30.7641 46.8377 31.4518 46.8377H35.0889C39.3936 46.8377 42.2361 44.1636 42.2361 40.0361C42.2338 35.6721 39.5577 32.8408 34.878 32.8408ZM35.0444 44.1238H32.9316V35.555H34.8358C37.7182 35.555 38.9718 37.3808 38.9718 39.9003C38.9718 42.2582 37.7403 44.1238 35.0444 44.1238ZM22.3484 32.8408H18.915C17.9443 32.8408 17.4031 33.4454 17.4031 34.3643V45.354C17.4031 46.3338 18.0237 46.8775 18.8578 46.8775C19.6918 46.8775 20.3124 46.3338 20.3124 45.354V42.1454H22.4648C25.1211 42.1454 27.3133 40.3688 27.3133 37.5118C27.3135 34.7159 25.1984 32.8408 22.3484 32.8408ZM22.2914 39.5675H20.3127V35.4214H22.2914C23.5128 35.4214 24.2899 36.3213 24.2899 37.4955C24.2873 38.6676 23.5128 39.5675 22.2914 39.5675Z" fill="white"/>
</svg>
